<svg xmlns="http://www.w3.org/2000/svg" xmlns:xlink="http://www.w3.org/1999/xlink" version="1.1" data-diagram-type="DESCRIPTION" style="width:781px;height:927px;background:#FFFFFF;" width="781px" height="927px" viewBox="0 0 781 927" zoomAndPan="magnify" preserveAspectRatio="none" contentStyleType="text/css"><?plantuml 1.2026.8?><defs/><g font-family="sans-serif" lengthAdjust="spacing"><!--cluster ระบบยืม-คืนอุปกรณ์ IoT : ผู้ใช้ทั่วไป--><g class="cluster" data-qualified-name=".......-.......... IoT . ............" id="ent0007" data-source-line="10"><rect x="286" y="7" width="481" height="814" fill="none" style="stroke:#181818;stroke-width:1;" rx="2.5" ry="2.5"/><text x="411.574" y="23.007" fill="#000" font-size="14" textLength="229.852" font-weight="700" font-family="Tahoma">ระบบยืม-คืนอุปกรณ์ IoT : ผู้ใช้ทั่วไป</text></g><!--entity U01--><g class="entity" data-qualified-name=".......-.......... IoT . .............U01" id="ent0008" data-source-line="11"><ellipse cx="400.18" cy="708.836" rx="72.18" ry="16.836" fill="#F1F1F1" style="stroke:#181818;stroke-width:0.5;"/><text x="345.397" y="713.785" fill="#000" font-size="14" textLength="109.566" font-family="Tahoma">UC01 สมัครสมาชิก</text></g><!--entity U02--><g class="entity" data-qualified-name=".......-.......... IoT . .............U02" id="ent0009" data-source-line="12"><ellipse cx="400.214" cy="635.243" rx="96.714" ry="21.743" fill="#F1F1F1" style="stroke:#181818;stroke-width:0.5;"/><text x="316.562" y="640.192" fill="#000" font-size="14" textLength="167.303" font-family="Tahoma">UC02 เข้าสู่ระบบด้วยรหัสผ่าน</text></g><!--entity U03--><g class="entity" data-qualified-name=".......-.......... IoT . .............U03" id="ent0010" data-source-line="13"><ellipse cx="654.327" cy="783.165" rx="96.327" ry="21.665" fill="#F1F1F1" style="stroke:#181818;stroke-width:0.5;"/><text x="571.109" y="788.115" fill="#000" font-size="14" textLength="166.435" font-family="Tahoma">UC03 เข้าสู่ระบบด้วย Google</text></g><!--entity U04--><g class="entity" data-qualified-name=".......-.......... IoT . .............U04" id="ent0011" data-source-line="14"><ellipse cx="399.995" cy="555.799" rx="96.995" ry="21.799" fill="#F1F1F1" style="stroke:#181818;stroke-width:0.5;"/><text x="316.029" y="560.748" fill="#000" font-size="14" textLength="167.932" font-family="Tahoma">UC04 รีเซ็ตรหัสผ่านด้วย OTP</text></g><!--entity U05--><g class="entity" data-qualified-name=".......-.......... IoT . .............U05" id="ent0012" data-source-line="15"><ellipse cx="400.224" cy="340.845" rx="77.224" ry="17.845" fill="#F1F1F1" style="stroke:#181818;stroke-width:0.5;"/><text x="339.196" y="345.794" fill="#000" font-size="14" textLength="122.056" font-family="Tahoma">UC05 จัดการโปรไฟล์</text></g><!--entity U06--><g class="entity" data-qualified-name=".......-.......... IoT . .............U06" id="ent0013" data-source-line="16"><ellipse cx="400.184" cy="412.837" rx="79.684" ry="18.337" fill="#F1F1F1" style="stroke:#181818;stroke-width:0.5;"/><text x="336.186" y="417.786" fill="#000" font-size="14" textLength="127.996" font-family="Tahoma">UC06 ค้นหา/ดูอุปกรณ์</text></g><!--entity U07--><g class="entity" data-qualified-name=".......-.......... IoT . .............U07" id="ent0014" data-source-line="17"><ellipse cx="399.887" cy="482.877" rx="67.387" ry="15.877" fill="#F1F1F1" style="stroke:#181818;stroke-width:0.5;"/><text x="351.297" y="487.827" fill="#000" font-size="14" textLength="97.18" font-family="Tahoma">UC07 ยืมอุปกรณ์</text></g><!--entity U08--><g class="entity" data-qualified-name=".......-.......... IoT . .............U08" id="ent0015" data-source-line="18"><ellipse cx="399.78" cy="58.756" rx="69.28" ry="16.256" fill="#F1F1F1" style="stroke:#181818;stroke-width:0.5;"/><text x="348.708" y="63.705" fill="#000" font-size="14" textLength="102.143" font-family="Tahoma">UC08 ส่งคำขอคืน</text></g><!--entity U09--><g class="entity" data-qualified-name=".......-.......... IoT . .............U09" id="ent0016" data-source-line="19"><ellipse cx="399.993" cy="198.899" rx="79.993" ry="18.399" fill="#F1F1F1" style="stroke:#181818;stroke-width:0.5;"/><text x="335.625" y="203.848" fill="#000" font-size="14" textLength="128.734" font-family="Tahoma">UC09 ดูประวัติ/ติดตาม</text></g><!--entity U10--><g class="entity" data-qualified-name=".......-.......... IoT . .............U10" id="ent0017" data-source-line="20"><ellipse cx="400" cy="269.9" rx="75" ry="17.4" fill="#F1F1F1" style="stroke:#181818;stroke-width:0.5;"/><text x="341.697" y="274.849" fill="#000" font-size="14" textLength="116.607" font-family="Tahoma">UC10 ดู Dashboard</text></g><!--entity U21--><g class="entity" data-qualified-name=".......-.......... IoT . .............U21" id="ent0018" data-source-line="21"><ellipse cx="399.882" cy="127.776" rx="74.382" ry="17.276" fill="#F1F1F1" style="stroke:#181818;stroke-width:0.5;"/><text x="342.344" y="132.726" fill="#000" font-size="14" textLength="115.076" font-family="Tahoma">UC21 ออกจากระบบ</text></g><!--entity U22--><g class="entity" data-qualified-name=".......-.......... IoT . .............U22" id="ent0019" data-source-line="22"><ellipse cx="399.872" cy="782.974" rx="97.872" ry="21.974" fill="#F1F1F1" style="stroke:#181818;stroke-width:0.5;"/><text x="314.925" y="787.924" fill="#000" font-size="14" textLength="169.894" font-family="Tahoma">UC22 เชื่อมบัญชี Google เดิม</text></g><!--entity Guest--><g class="entity" data-qualified-name="Guest" id="ent0001" data-source-line="4"><ellipse cx="187.631" cy="679" rx="8" ry="8" fill="#F1F1F1" style="stroke:#181818;stroke-width:0.5;"/><path d="M187.631,687 L187.631,714 M174.631,695 L200.631,695 M187.631,714 L174.631,729 M187.631,714 L200.631,729" style="stroke:#181818;stroke-width:0.5;" fill="none"/><text x="160" y="744.507" fill="#000" font-size="14" textLength="55.262" font-family="Tahoma">ผู้เยี่ยมชม</text></g><!--entity Member--><g class="entity" data-qualified-name="Member" id="ent0002" data-source-line="5"><ellipse cx="187.633" cy="240" rx="8" ry="8" fill="#F1F1F1" style="stroke:#181818;stroke-width:0.5;"/><path d="M187.633,248 L187.633,275 M174.633,256 L200.633,256 M187.633,275 L174.633,290 M187.633,275 L200.633,290" style="stroke:#181818;stroke-width:0.5;" fill="none"/><text x="133" y="305.507" fill="#000" font-size="14" textLength="109.266" font-family="Tahoma">สมาชิกที่เข้าสู่ระบบ</text></g><!--entity User--><g class="entity" data-qualified-name="User" id="ent0003" data-source-line="6"><ellipse cx="39.373" cy="165" rx="8" ry="8" fill="#F1F1F1" style="stroke:#181818;stroke-width:0.5;"/><path d="M39.373,173 L39.373,200 M26.373,181 L52.373,181 M39.373,200 L26.373,215 M39.373,200 L52.373,215" style="stroke:#181818;stroke-width:0.5;" fill="none"/><text x="6" y="230.507" fill="#000" font-size="14" textLength="66.746" font-family="Tahoma">ผู้ใช้ (User)</text></g><!--entity Google--><g class="entity" data-qualified-name="Google" id="ent0004" data-source-line="7"><ellipse cx="187.452" cy="845" rx="8" ry="8" fill="#F1F1F1" style="stroke:#181818;stroke-width:0.5;"/><path d="M187.452,853 L187.452,880 M174.452,861 L200.452,861 M187.452,880 L174.452,895 M187.452,880 L200.452,895" style="stroke:#181818;stroke-width:0.5;" fill="none"/><text x="140" y="910.507" fill="#000" font-size="14" textLength="94.903" font-family="Tahoma">Google Identity</text></g><!--entity Mail--><g class="entity" data-qualified-name="Mail" id="ent0005" data-source-line="8"><ellipse cx="187.477" cy="526" rx="8" ry="8" fill="#F1F1F1" style="stroke:#181818;stroke-width:0.5;"/><path d="M187.477,534 L187.477,561 M174.477,542 L200.477,542 M187.477,561 L174.477,576 M187.477,561 L200.477,576" style="stroke:#181818;stroke-width:0.5;" fill="none"/><text x="154.5" y="591.507" fill="#000" font-size="14" textLength="65.953" font-family="Tahoma">บริการอีเมล</text></g><!--link User to Member--><g class="link" data-entity-1="ent0003" data-entity-2="ent0002" id="lnk6" data-source-line="9" data-link-type="extension"><path d="M73.02,224.5 C108.99,224.5 161,224.5 161,224.5 C161,224.5 161,209.17 161,213.21" style="stroke:#181818;stroke-width:1;" fill="none" id="User-to-Member"/><polygon points="161,231.21,167,213.21,155,213.21,161,231.21" fill="none" style="stroke:#181818;stroke-width:1;stroke-linejoin:miter;stroke-miterlimit:10;"/></g><!--link Guest to U01--><g class="link" data-entity-1="ent0001" data-entity-2="ent0008" id="lnk20" data-source-line="24" data-link-type="association"><path d="M215.28,709 C243.74,709 289.18,709 327.87,709" style="stroke:#181818;stroke-width:1;" fill="none" id="Guest-U01"/></g><!--link Guest to U02--><g class="link" data-entity-1="ent0001" data-entity-2="ent0009" id="lnk21" data-source-line="25" data-link-type="association"><path d="M215.28,684.83 C254.13,684.83 320,684.83 320,684.83 C320,684.83 320,661.81 320,647.06" style="stroke:#181818;stroke-width:1;" fill="none" id="Guest-U02"/></g><!--link Guest to U03--><g class="link" data-entity-1="ent0001" data-entity-2="ent0010" id="lnk22" data-source-line="26" data-link-type="association"><path d="M215.34,733.17 C315.99,733.17 655,733.17 655,733.17 C655,733.17 655,747.86 655,761.29" style="stroke:#181818;stroke-width:1;" fill="none" id="Guest-U03"/></g><!--link Guest to U04--><g class="link" data-entity-1="ent0001" data-entity-2="ent0011" id="lnk23" data-source-line="27" data-link-type="association"><path d="M215.11,677.67 C226.9,677.67 238,677.67 238,677.67 C238,677.67 238,563.33 238,563.33 C238,563.33 271.55,563.33 308.11,563.33" style="stroke:#181818;stroke-width:1;" fill="none" id="Guest-U04"/></g><!--link Guest to U22--><g class="link" data-entity-1="ent0001" data-entity-2="ent0019" id="lnk24" data-source-line="28" data-link-type="association"><path d="M215.13,740.33 C251.81,740.33 312,740.33 312,740.33 C312,740.33 312,760.5 312,773.1" style="stroke:#181818;stroke-width:1;" fill="none" id="Guest-U22"/></g><!--link Google to U03--><g class="link" data-entity-1="ent0004" data-entity-2="ent0010" id="lnk25" data-source-line="29" data-link-type="association"><path d="M235.33,875 C354.48,875 655,875 655,875 C655,875 655,832.01 655,804.8" style="stroke:#181818;stroke-width:1;" fill="none" id="Google-U03"/></g><!--link Google to U22--><g class="link" data-entity-1="ent0004" data-entity-2="ent0019" id="lnk26" data-source-line="30" data-link-type="association"><path d="M228,836.25 C228,811.11 228,783 228,783 C228,783 263.32,783 301.94,783" style="stroke:#181818;stroke-width:1;" fill="none" id="Google-U22"/></g><!--link Mail to U04--><g class="link" data-entity-1="ent0005" data-entity-2="ent0011" id="lnk27" data-source-line="31" data-link-type="association"><path d="M220.7,548.67 C244.28,548.67 277.16,548.67 308.34,548.67" style="stroke:#181818;stroke-width:1;" fill="none" id="Mail-U04"/></g><!--link Member to U05--><g class="link" data-entity-1="ent0002" data-entity-2="ent0012" id="lnk28" data-source-line="32" data-link-type="association"><path d="M241,308.82 C241,325.4 241,341 241,341 C241,341 282.32,341 322.83,341" style="stroke:#181818;stroke-width:1;" fill="none" id="Member-U05"/></g><!--link Member to U06--><g class="link" data-entity-1="ent0002" data-entity-2="ent0013" id="lnk29" data-source-line="33" data-link-type="association"><path d="M240,308.7 C240,351.05 240,413 240,413 C240,413 280.31,413 320.47,413" style="stroke:#181818;stroke-width:1;" fill="none" id="Member-U06"/></g><!--link Member to U07--><g class="link" data-entity-1="ent0002" data-entity-2="ent0014" id="lnk30" data-source-line="34" data-link-type="association"><path d="M237,308.57 C237,369.95 237,483 237,483 C237,483 287.51,483 332.29,483" style="stroke:#181818;stroke-width:1;" fill="none" id="Member-U07"/></g><!--link Member to U09--><g class="link" data-entity-1="ent0002" data-entity-2="ent0016" id="lnk31" data-source-line="35" data-link-type="association"><path d="M215,231.18 C215,214.6 215,199 215,199 C215,199 269.93,199 319.93,199" style="stroke:#181818;stroke-width:1;" fill="none" id="Member-U09"/></g><!--link Member to U10--><g class="link" data-entity-1="ent0002" data-entity-2="ent0017" id="lnk32" data-source-line="36" data-link-type="association"><path d="M242.22,270 C267.31,270 297.45,270 324.64,270" style="stroke:#181818;stroke-width:1;" fill="none" id="Member-U10"/></g><!--link Member to U21--><g class="link" data-entity-1="ent0002" data-entity-2="ent0018" id="lnk33" data-source-line="37" data-link-type="association"><path d="M188,231.2 C188,189.15 188,128 188,128 C188,128 264.22,128 325.26,128" style="stroke:#181818;stroke-width:1;" fill="none" id="Member-U21"/></g><!--link User to U08--><g class="link" data-entity-1="ent0003" data-entity-2="ent0015" id="lnk34" data-source-line="38" data-link-type="association"><path d="M40,156.39 C40,116.18 40,59 40,59 C40,59 225.47,59 330.16,59" style="stroke:#181818;stroke-width:1;" fill="none" id="User-U08"/></g><!--link U22 to U03--><g class="link" data-entity-1="ent0019" data-entity-2="ent0010" id="lnk35" data-source-line="39" data-link-type="dependency"><path d="M498.03,783 C517.64,783 533.22,783 552.78,783" style="stroke:#181818;stroke-width:1;stroke-dasharray:7,7;" fill="none" id="U22-to-U03"/><polygon points="557.78,783,548.78,779,552.78,783,548.78,787,557.78,783" fill="#181818" style="stroke:#181818;stroke-width:1;stroke-linejoin:miter;stroke-miterlimit:10;"/><text x="473.9" y="797.006" fill="#000" font-size="13" textLength="53.809" font-family="Tahoma">«extend»</text></g><?plantuml-src bLHTQnD157tVNt79apwaJJPVZPIyA9O--F6G_81fTjei9ZjbTm8M5Tegz4DzCgKaAKWD4eW4R6nnzj_CJt7cxgpPtLP5M9AvE_USU-RSkzEbsnmu0z_TwN1mN9-skSiyAtZXUhl49prmw3RfT_bZvl6df4UXIJgiHn89NTUZV6-N0lDvXrcapPaFEIakf0XbU2B3VIc-I74ZmsDSN4fngdvpG0BOwDE0Bo4pt5rWmhKK1rAS6w0cETHiUdU6p8fj8iLtAKRgGROdjBT5_JiKlDMCuGdSQmNKlu-vUXLdRZ2sqwMmwL2FktmlKeRlbbmZh1Q9Mk1wZjBsKVBNg3vnkvOcXdp-TIEMeoqbdYwGIof6BtugT5wATxWQ8gUGOenLLEed6Nw0JTQ41t3xD6ZE5VembQ6Y6EVWbGNG3sYR1AfQws6X2B6fLrXbSjlZo8r2COEquP-UIp70tIaUHRt_XcLcMghELAYXORSpxAN_OpVTC6Ib35aP41SruxqCZwGu-vEU5EkpvdD3MSvGLXJbCQ87ouw7XzYQ2PhzMJLTTSVWAnby5RJTkj0GPInMaIcyiyE6evhXgC7l4VaRh9Q1hM7BzNcFiEK_jCqQRuRCmDOoi3h42iTn5wPeWBBoUZNwmumpTEFIqDJJDCM2eO579EXiCU8xKMAna4wqzMJEyJb0gnVnqP8VTClEZALjnl9KdqMVSOxkZ53fHtn_OuObIXoWRAFMjgqt5buvwWF5cKy4TZ8e9ODo8b0KXZxEMqPgJzy0CIZw_AEeaegggQYMYkh9IBcMY9GPvdB1_gbwiBBIq2hK_R2-JbzowZcDnYy0?></g></svg>